<?xml version="1.0" encoding="UTF-8"?>
<svg xmlns="http://www.w3.org/2000/svg" viewBox="0 0 980 470" width="980" height="470">
  <path
    id="turkey-outline"
    fill="none"
    stroke="none"
    d="M573.58,78.20L645.68,104.17L704.22,93.81L747.49,99.80L806.82,64.75L860.37,61.56L908.77,94.53L917.31,118.16L912.48,150.83L949.85,167.52L969.65,187.13L935.23,206.25L950.92,283.26L941.09,304.05L968.58,357.84L944.49,369.18L926.84,352.08L868.39,343.42L846.80,353.85L789.63,364.29L762.55,363.16L704.72,388.35L663.38,388.56L636.63,375.92L581.30,394.60L564.86,381.54L562.14,418.99L548.68,433.70L535.22,448.41L516.74,417.96L535.77,392.75L505.12,398.46L463.09,383.01L428.53,421.66L352.26,429.21L311.57,393.17L257.39,390.91L245.81,418.77L211.08,426.74L162.47,390.98L107.61,392.19L77.84,325.42L41.12,288.17L65.57,235.96L33.71,203.87L89.46,139.66L166.85,136.97L187.96,85.94L283.74,94.83L344.15,51.28L402.72,32.30L485.86,30.87L573.58,78.20ZM85.05,121.49L43.12,157.65L27.31,126.38L27.99,112.52L39.93,104.99L55.49,62.97L31.01,45.19L82.21,24.07L125.48,33.08L131.45,58.89L175.32,80.58L166.17,97.02L106.49,100.73L85.05,121.49Z"
  />
</svg>
